<mxfile host="65bd71144e">
    <diagram id="VAG-NLvXoE1IxO-6j3iD" name="第 1 页">
        <mxGraphModel dx="823" dy="629" grid="1" gridSize="10" guides="1" tooltips="1" connect="1" arrows="1" fold="1" page="1" pageScale="1" pageWidth="1654" pageHeight="1169" math="0" shadow="0">
            <root>
                <mxCell id="0"/>
                <mxCell id="1" parent="0"/>
                <mxCell id="Nm-jKGNCIeSqwup2M09l-10" style="edgeStyle=none;html=1;entryX=0;entryY=0.5;entryDx=0;entryDy=0;fontSize=20;exitX=1;exitY=0.25;exitDx=0;exitDy=0;" edge="1" parent="1" source="Nm-jKGNCIeSqwup2M09l-61" target="Nm-jKGNCIeSqwup2M09l-109">
                    <mxGeometry relative="1" as="geometry">
                        <mxPoint x="160" y="203" as="sourcePoint"/>
                        <mxPoint x="260" y="203" as="targetPoint"/>
                    </mxGeometry>
                </mxCell>
                <mxCell id="Nm-jKGNCIeSqwup2M09l-11" value="初始提交操作" style="rounded=0;whiteSpace=wrap;html=1;fontSize=20;" vertex="1" parent="1">
                    <mxGeometry x="490" y="173" width="160" height="60" as="geometry"/>
                </mxCell>
                <mxCell id="Nm-jKGNCIeSqwup2M09l-13" value="" style="endArrow=classic;html=1;fontSize=20;exitX=1;exitY=0.5;exitDx=0;exitDy=0;entryX=0;entryY=0.5;entryDx=0;entryDy=0;" edge="1" parent="1" source="Nm-jKGNCIeSqwup2M09l-109" target="Nm-jKGNCIeSqwup2M09l-11">
                    <mxGeometry width="50" height="50" relative="1" as="geometry">
                        <mxPoint x="420" y="203" as="sourcePoint"/>
                        <mxPoint x="630" y="473" as="targetPoint"/>
                    </mxGeometry>
                </mxCell>
                <mxCell id="Nm-jKGNCIeSqwup2M09l-14" value="" style="endArrow=classic;html=1;fontSize=20;entryX=0;entryY=0.5;entryDx=0;entryDy=0;exitX=1;exitY=0.5;exitDx=0;exitDy=0;" edge="1" parent="1" source="Nm-jKGNCIeSqwup2M09l-11" target="Nm-jKGNCIeSqwup2M09l-12">
                    <mxGeometry width="50" height="50" relative="1" as="geometry">
                        <mxPoint x="460" y="443" as="sourcePoint"/>
                        <mxPoint x="510" y="393" as="targetPoint"/>
                    </mxGeometry>
                </mxCell>
                <mxCell id="Nm-jKGNCIeSqwup2M09l-20" value="" style="endArrow=classic;html=1;fontSize=20;entryX=0.5;entryY=0;entryDx=0;entryDy=0;exitX=0.5;exitY=1;exitDx=0;exitDy=0;" edge="1" parent="1" target="Nm-jKGNCIeSqwup2M09l-100" source="Nm-jKGNCIeSqwup2M09l-15">
                    <mxGeometry width="50" height="50" relative="1" as="geometry">
                        <mxPoint x="861" y="504" as="sourcePoint"/>
                        <mxPoint x="921" y="574" as="targetPoint"/>
                    </mxGeometry>
                </mxCell>
                <mxCell id="Nm-jKGNCIeSqwup2M09l-26" value="" style="endArrow=classic;html=1;fontSize=20;entryX=0.5;entryY=0;entryDx=0;entryDy=0;exitX=0.5;exitY=1;exitDx=0;exitDy=0;" edge="1" parent="1" target="Nm-jKGNCIeSqwup2M09l-19" source="Nm-jKGNCIeSqwup2M09l-101">
                    <mxGeometry width="50" height="50" relative="1" as="geometry">
                        <mxPoint x="1430" y="551.5" as="sourcePoint"/>
                        <mxPoint x="1470.5" y="810.5" as="targetPoint"/>
                    </mxGeometry>
                </mxCell>
                <mxCell id="Nm-jKGNCIeSqwup2M09l-44" style="edgeStyle=none;html=1;exitX=0;exitY=0.5;exitDx=0;exitDy=0;entryX=1;entryY=0.5;entryDx=0;entryDy=0;fontSize=20;" edge="1" parent="1" target="Nm-jKGNCIeSqwup2M09l-42">
                    <mxGeometry relative="1" as="geometry">
                        <mxPoint x="1370.5" y="1010" as="sourcePoint"/>
                    </mxGeometry>
                </mxCell>
                <mxCell id="Nm-jKGNCIeSqwup2M09l-35" value="取消申请操作" style="rounded=0;whiteSpace=wrap;html=1;fontSize=20;" vertex="1" parent="1">
                    <mxGeometry x="490" y="257" width="160" height="60" as="geometry"/>
                </mxCell>
                <mxCell id="Nm-jKGNCIeSqwup2M09l-47" style="edgeStyle=none;html=1;exitX=0;exitY=0.5;exitDx=0;exitDy=0;entryX=1;entryY=0.5;entryDx=0;entryDy=0;fontSize=20;" edge="1" parent="1" source="Nm-jKGNCIeSqwup2M09l-36" target="Nm-jKGNCIeSqwup2M09l-45">
                    <mxGeometry relative="1" as="geometry"/>
                </mxCell>
                <mxCell id="Nm-jKGNCIeSqwup2M09l-36" value="最终拒绝操作" style="rounded=0;whiteSpace=wrap;html=1;fontSize=20;" vertex="1" parent="1">
                    <mxGeometry x="490" y="853" width="160" height="60" as="geometry"/>
                </mxCell>
                <mxCell id="Nm-jKGNCIeSqwup2M09l-42" value="最终批准操作" style="rounded=0;whiteSpace=wrap;html=1;fontSize=20;" vertex="1" parent="1">
                    <mxGeometry x="488" y="983" width="160" height="60" as="geometry"/>
                </mxCell>
                <mxCell id="Nm-jKGNCIeSqwup2M09l-45" value="结束" style="rounded=0;whiteSpace=wrap;html=1;fontSize=20;" vertex="1" parent="1">
                    <mxGeometry x="260" y="853" width="160" height="60" as="geometry"/>
                </mxCell>
                <mxCell id="Nm-jKGNCIeSqwup2M09l-59" value="" style="endArrow=classic;html=1;fontSize=20;entryX=0;entryY=0.5;entryDx=0;entryDy=0;" edge="1" parent="1" target="Nm-jKGNCIeSqwup2M09l-110">
                    <mxGeometry width="50" height="50" relative="1" as="geometry">
                        <mxPoint x="210" y="286" as="sourcePoint"/>
                        <mxPoint x="260" y="286" as="targetPoint"/>
                    </mxGeometry>
                </mxCell>
                <mxCell id="Nm-jKGNCIeSqwup2M09l-61" value="对象记录" style="swimlane;fontSize=20;strokeWidth=2;align=center;startSize=50;fontStyle=1;rounded=1;opacity=80;" vertex="1" parent="1">
                    <mxGeometry x="40" y="155" width="170" height="191" as="geometry"/>
                </mxCell>
                <mxCell id="Nm-jKGNCIeSqwup2M09l-70" style="edgeStyle=none;html=1;entryX=0;entryY=0.5;entryDx=0;entryDy=0;fontSize=20;exitX=1;exitY=0.5;exitDx=0;exitDy=0;" edge="1" parent="1" target="Nm-jKGNCIeSqwup2M09l-35">
                    <mxGeometry relative="1" as="geometry">
                        <mxPoint x="420" y="286" as="sourcePoint"/>
                        <mxPoint x="270" y="213" as="targetPoint"/>
                    </mxGeometry>
                </mxCell>
                <mxCell id="Nm-jKGNCIeSqwup2M09l-71" value="" style="endArrow=classic;html=1;fontSize=20;strokeWidth=1;entryX=1;entryY=0.5;entryDx=0;entryDy=0;exitX=0;exitY=0.5;exitDx=0;exitDy=0;" edge="1" parent="1" source="Nm-jKGNCIeSqwup2M09l-23" target="Nm-jKGNCIeSqwup2M09l-36">
                    <mxGeometry width="50" height="50" relative="1" as="geometry">
                        <mxPoint x="1069.5" y="850.5" as="sourcePoint"/>
                        <mxPoint x="840" y="663" as="targetPoint"/>
                    </mxGeometry>
                </mxCell>
                <mxCell id="Nm-jKGNCIeSqwup2M09l-73" value="" style="endArrow=none;html=1;fontSize=20;strokeWidth=1;entryX=0.5;entryY=1;entryDx=0;entryDy=0;" edge="1" parent="1" target="Nm-jKGNCIeSqwup2M09l-17">
                    <mxGeometry width="50" height="50" relative="1" as="geometry">
                        <mxPoint x="880" y="883" as="sourcePoint"/>
                        <mxPoint x="890" y="413" as="targetPoint"/>
                    </mxGeometry>
                </mxCell>
                <mxCell id="Nm-jKGNCIeSqwup2M09l-74" value="" style="endArrow=none;html=1;fontSize=20;strokeWidth=1;entryX=0;entryY=0.5;entryDx=0;entryDy=0;" edge="1" parent="1" target="Nm-jKGNCIeSqwup2M09l-102">
                    <mxGeometry width="50" height="50" relative="1" as="geometry">
                        <mxPoint x="880" y="627" as="sourcePoint"/>
                        <mxPoint x="840" y="663" as="targetPoint"/>
                    </mxGeometry>
                </mxCell>
                <mxCell id="Nm-jKGNCIeSqwup2M09l-76" value="" style="edgeStyle=segmentEdgeStyle;endArrow=classic;html=1;fontSize=20;strokeWidth=1;entryX=0.5;entryY=1;entryDx=0;entryDy=0;exitX=0;exitY=0.5;exitDx=0;exitDy=0;" edge="1" parent="1" source="Nm-jKGNCIeSqwup2M09l-42" target="Nm-jKGNCIeSqwup2M09l-45">
                    <mxGeometry width="50" height="50" relative="1" as="geometry">
                        <mxPoint x="290" y="1123" as="sourcePoint"/>
                        <mxPoint x="340" y="1073" as="targetPoint"/>
                    </mxGeometry>
                </mxCell>
                <mxCell id="Nm-jKGNCIeSqwup2M09l-79" value="" style="edgeStyle=elbowEdgeStyle;elbow=vertical;endArrow=classic;html=1;fontSize=20;strokeWidth=1;exitX=0.5;exitY=1;exitDx=0;exitDy=0;entryX=0.5;entryY=0;entryDx=0;entryDy=0;" edge="1" parent="1" source="Nm-jKGNCIeSqwup2M09l-35" target="Nm-jKGNCIeSqwup2M09l-45">
                    <mxGeometry width="50" height="50" relative="1" as="geometry">
                        <mxPoint x="790" y="713" as="sourcePoint"/>
                        <mxPoint x="840" y="663" as="targetPoint"/>
                        <Array as="points">
                            <mxPoint x="470" y="733"/>
                        </Array>
                    </mxGeometry>
                </mxCell>
                <mxCell id="Nm-jKGNCIeSqwup2M09l-80" value="" style="edgeStyle=segmentEdgeStyle;endArrow=classic;html=1;fontSize=20;strokeWidth=1;exitX=0;exitY=0.5;exitDx=0;exitDy=0;shape=link;dashed=1;entryX=0.5;entryY=1;entryDx=0;entryDy=0;" edge="1" parent="1" source="Nm-jKGNCIeSqwup2M09l-45" target="Nm-jKGNCIeSqwup2M09l-61">
                    <mxGeometry width="50" height="50" relative="1" as="geometry">
                        <mxPoint x="278" y="723.5" as="sourcePoint"/>
                        <mxPoint x="100" y="350" as="targetPoint"/>
                    </mxGeometry>
                </mxCell>
                <mxCell id="Nm-jKGNCIeSqwup2M09l-81" value="批准步骤1" style="swimlane;rounded=1;fontSize=20;strokeWidth=2;align=center;startSize=50;opacity=80;fontStyle=0" vertex="1" parent="1">
                    <mxGeometry x="700" y="81" width="640" height="280" as="geometry"/>
                </mxCell>
                <mxCell id="Nm-jKGNCIeSqwup2M09l-12" value="批准步骤1" style="rhombus;whiteSpace=wrap;html=1;fontSize=20;" vertex="1" parent="Nm-jKGNCIeSqwup2M09l-81">
                    <mxGeometry x="60" y="83.5" width="240" height="80" as="geometry"/>
                </mxCell>
                <mxCell id="Nm-jKGNCIeSqwup2M09l-17" value="步骤1的拒绝操作" style="rounded=0;whiteSpace=wrap;html=1;fontSize=20;" vertex="1" parent="Nm-jKGNCIeSqwup2M09l-81">
                    <mxGeometry x="80" y="200" width="200" height="60" as="geometry"/>
                </mxCell>
                <mxCell id="Nm-jKGNCIeSqwup2M09l-18" value="" style="endArrow=classic;html=1;fontSize=20;entryX=0.5;entryY=0;entryDx=0;entryDy=0;" edge="1" parent="Nm-jKGNCIeSqwup2M09l-81" target="Nm-jKGNCIeSqwup2M09l-17" source="Nm-jKGNCIeSqwup2M09l-12">
                    <mxGeometry width="50" height="50" relative="1" as="geometry">
                        <mxPoint x="570" y="-191" as="sourcePoint"/>
                        <mxPoint x="830" y="49" as="targetPoint"/>
                    </mxGeometry>
                </mxCell>
                <mxCell id="Nm-jKGNCIeSqwup2M09l-15" value="步骤1的批准操作" style="rounded=0;whiteSpace=wrap;html=1;fontSize=20;" vertex="1" parent="Nm-jKGNCIeSqwup2M09l-81">
                    <mxGeometry x="370" y="93.5" width="200" height="60" as="geometry"/>
                </mxCell>
                <mxCell id="Nm-jKGNCIeSqwup2M09l-16" value="" style="endArrow=classic;html=1;fontSize=20;entryX=0;entryY=0.5;entryDx=0;entryDy=0;exitX=1;exitY=0.5;exitDx=0;exitDy=0;" edge="1" parent="Nm-jKGNCIeSqwup2M09l-81" source="Nm-jKGNCIeSqwup2M09l-12" target="Nm-jKGNCIeSqwup2M09l-15">
                    <mxGeometry width="50" height="50" relative="1" as="geometry">
                        <mxPoint x="730" y="-231" as="sourcePoint"/>
                        <mxPoint x="500" y="-221" as="targetPoint"/>
                    </mxGeometry>
                </mxCell>
                <mxCell id="Nm-jKGNCIeSqwup2M09l-118" value="拒绝" style="text;html=1;strokeColor=none;fillColor=none;align=center;verticalAlign=middle;whiteSpace=wrap;rounded=0;dashed=1;fontSize=20;opacity=80;" vertex="1" parent="Nm-jKGNCIeSqwup2M09l-81">
                    <mxGeometry x="190" y="169" width="50" height="20" as="geometry"/>
                </mxCell>
                <mxCell id="Nm-jKGNCIeSqwup2M09l-86" value="批准步骤3" style="swimlane;rounded=1;fontSize=20;strokeWidth=2;align=center;opacity=80;startSize=50;fontStyle=0" vertex="1" parent="1">
                    <mxGeometry x="1002" y="763" width="620" height="300" as="geometry"/>
                </mxCell>
                <mxCell id="Nm-jKGNCIeSqwup2M09l-19" value="批准步骤3" style="rhombus;whiteSpace=wrap;html=1;fontSize=20;" vertex="1" parent="Nm-jKGNCIeSqwup2M09l-86">
                    <mxGeometry x="330" y="80" width="240" height="80" as="geometry"/>
                </mxCell>
                <mxCell id="Nm-jKGNCIeSqwup2M09l-21" value="步骤3的批准操作" style="rounded=0;whiteSpace=wrap;html=1;fontSize=20;" vertex="1" parent="Nm-jKGNCIeSqwup2M09l-86">
                    <mxGeometry x="351" y="210" width="200" height="60" as="geometry"/>
                </mxCell>
                <mxCell id="Nm-jKGNCIeSqwup2M09l-23" value="步骤3的拒绝操作" style="rounded=0;whiteSpace=wrap;html=1;fontSize=20;" vertex="1" parent="Nm-jKGNCIeSqwup2M09l-86">
                    <mxGeometry x="50" y="90" width="200" height="60" as="geometry"/>
                </mxCell>
                <mxCell id="Nm-jKGNCIeSqwup2M09l-24" value="" style="endArrow=classic;html=1;fontSize=20;entryX=1;entryY=0.5;entryDx=0;entryDy=0;exitX=0;exitY=0.5;exitDx=0;exitDy=0;" edge="1" parent="Nm-jKGNCIeSqwup2M09l-86" source="Nm-jKGNCIeSqwup2M09l-19" target="Nm-jKGNCIeSqwup2M09l-23">
                    <mxGeometry width="50" height="50" relative="1" as="geometry">
                        <mxPoint x="199.5" y="88.5" as="sourcePoint"/>
                        <mxPoint x="459.5" y="328.5" as="targetPoint"/>
                    </mxGeometry>
                </mxCell>
                <mxCell id="Nm-jKGNCIeSqwup2M09l-108" value="" style="endArrow=classic;html=1;fontSize=20;entryX=0.5;entryY=0;entryDx=0;entryDy=0;exitX=0.5;exitY=1;exitDx=0;exitDy=0;" edge="1" parent="Nm-jKGNCIeSqwup2M09l-86" source="Nm-jKGNCIeSqwup2M09l-19" target="Nm-jKGNCIeSqwup2M09l-21">
                    <mxGeometry width="50" height="50" relative="1" as="geometry">
                        <mxPoint x="-50" y="-200" as="sourcePoint"/>
                        <mxPoint x="-120" y="-472" as="targetPoint"/>
                    </mxGeometry>
                </mxCell>
                <mxCell id="Nm-jKGNCIeSqwup2M09l-99" value="批准步骤2" style="swimlane;rounded=1;fontSize=20;strokeWidth=2;align=center;opacity=80;startSize=50;fontStyle=0" vertex="1" parent="1">
                    <mxGeometry x="1001" y="405" width="620" height="290" as="geometry"/>
                </mxCell>
                <mxCell id="Nm-jKGNCIeSqwup2M09l-100" value="批准步骤2" style="rhombus;whiteSpace=wrap;html=1;fontSize=20;" vertex="1" parent="Nm-jKGNCIeSqwup2M09l-99">
                    <mxGeometry x="49.5" y="82" width="240" height="80" as="geometry"/>
                </mxCell>
                <mxCell id="Nm-jKGNCIeSqwup2M09l-101" value="步骤2的批准操作" style="rounded=0;whiteSpace=wrap;html=1;fontSize=20;" vertex="1" parent="Nm-jKGNCIeSqwup2M09l-99">
                    <mxGeometry x="350" y="92" width="200" height="60" as="geometry"/>
                </mxCell>
                <mxCell id="Nm-jKGNCIeSqwup2M09l-102" value="步骤2的拒绝操作" style="rounded=0;whiteSpace=wrap;html=1;fontSize=20;" vertex="1" parent="Nm-jKGNCIeSqwup2M09l-99">
                    <mxGeometry x="69.5" y="192" width="200" height="60" as="geometry"/>
                </mxCell>
                <mxCell id="Nm-jKGNCIeSqwup2M09l-103" value="" style="endArrow=classic;html=1;fontSize=20;entryX=0.5;entryY=0;entryDx=0;entryDy=0;" edge="1" parent="Nm-jKGNCIeSqwup2M09l-99" source="Nm-jKGNCIeSqwup2M09l-100" target="Nm-jKGNCIeSqwup2M09l-102">
                    <mxGeometry width="50" height="50" relative="1" as="geometry">
                        <mxPoint x="199.5" y="88.5" as="sourcePoint"/>
                        <mxPoint x="459.5" y="328.5" as="targetPoint"/>
                    </mxGeometry>
                </mxCell>
                <mxCell id="Nm-jKGNCIeSqwup2M09l-104" value="" style="endArrow=classic;html=1;fontSize=20;entryX=0;entryY=0.5;entryDx=0;entryDy=0;exitX=1;exitY=0.5;exitDx=0;exitDy=0;" edge="1" parent="Nm-jKGNCIeSqwup2M09l-99" source="Nm-jKGNCIeSqwup2M09l-100" target="Nm-jKGNCIeSqwup2M09l-101">
                    <mxGeometry width="50" height="50" relative="1" as="geometry">
                        <mxPoint x="20" y="-178" as="sourcePoint"/>
                        <mxPoint x="80" y="-178.5" as="targetPoint"/>
                    </mxGeometry>
                </mxCell>
                <mxCell id="Nm-jKGNCIeSqwup2M09l-117" value="拒绝" style="text;html=1;strokeColor=none;fillColor=none;align=center;verticalAlign=middle;whiteSpace=wrap;rounded=0;dashed=1;fontSize=20;opacity=80;" vertex="1" parent="Nm-jKGNCIeSqwup2M09l-99">
                    <mxGeometry x="189" y="162" width="50" height="20" as="geometry"/>
                </mxCell>
                <mxCell id="Nm-jKGNCIeSqwup2M09l-109" value="提请批准" style="rounded=1;whiteSpace=wrap;html=1;fontSize=20;" vertex="1" parent="1">
                    <mxGeometry x="278" y="173" width="160" height="60" as="geometry"/>
                </mxCell>
                <mxCell id="Nm-jKGNCIeSqwup2M09l-110" value="取消申请" style="rounded=1;whiteSpace=wrap;html=1;fontSize=20;" vertex="1" parent="1">
                    <mxGeometry x="278" y="256" width="160" height="60" as="geometry"/>
                </mxCell>
                <mxCell id="Nm-jKGNCIeSqwup2M09l-112" value="批准" style="text;html=1;strokeColor=none;fillColor=none;align=center;verticalAlign=middle;whiteSpace=wrap;rounded=0;dashed=1;fontSize=20;opacity=80;" vertex="1" parent="1">
                    <mxGeometry x="1290" y="500" width="50" height="20" as="geometry"/>
                </mxCell>
                <mxCell id="Nm-jKGNCIeSqwup2M09l-113" value="批准" style="text;html=1;strokeColor=none;fillColor=none;align=center;verticalAlign=middle;whiteSpace=wrap;rounded=0;dashed=1;fontSize=20;opacity=80;" vertex="1" parent="1">
                    <mxGeometry x="1010" y="179" width="50" height="20" as="geometry"/>
                </mxCell>
                <mxCell id="Nm-jKGNCIeSqwup2M09l-114" value="批准" style="text;html=1;strokeColor=none;fillColor=none;align=center;verticalAlign=middle;whiteSpace=wrap;rounded=0;dashed=1;fontSize=20;opacity=80;" vertex="1" parent="1">
                    <mxGeometry x="1460" y="930" width="50" height="20" as="geometry"/>
                </mxCell>
                <mxCell id="Nm-jKGNCIeSqwup2M09l-115" value="拒绝" style="text;html=1;strokeColor=none;fillColor=none;align=center;verticalAlign=middle;whiteSpace=wrap;rounded=0;dashed=1;fontSize=20;opacity=80;" vertex="1" parent="1">
                    <mxGeometry x="1270" y="853" width="50" height="20" as="geometry"/>
                </mxCell>
                <mxCell id="Nm-jKGNCIeSqwup2M09l-120" value=".......&amp;nbsp; &amp;nbsp; &amp;nbsp; ........&lt;br&gt;.......&amp;nbsp; &amp;nbsp; &amp;nbsp; ........&lt;br&gt;.......&amp;nbsp; &amp;nbsp; &amp;nbsp; ........&lt;br&gt;.......&amp;nbsp; &amp;nbsp; &amp;nbsp; ........&lt;br&gt;.......&amp;nbsp; &amp;nbsp; &amp;nbsp; ........" style="text;html=1;align=center;verticalAlign=middle;resizable=0;points=[];autosize=1;strokeColor=none;fontSize=20;" vertex="1" parent="1">
                    <mxGeometry x="65" y="212" width="130" height="120" as="geometry"/>
                </mxCell>
                <mxCell id="Nm-jKGNCIeSqwup2M09l-129" value="满足" style="text;html=1;strokeColor=none;fillColor=none;align=center;verticalAlign=middle;whiteSpace=wrap;rounded=0;dashed=1;fontSize=20;opacity=80;" vertex="1" parent="1">
                    <mxGeometry x="220" y="179" width="50" height="20" as="geometry"/>
                </mxCell>
                <mxCell id="Nm-jKGNCIeSqwup2M09l-130" value="条件" style="text;html=1;strokeColor=none;fillColor=none;align=center;verticalAlign=middle;whiteSpace=wrap;rounded=0;dashed=1;fontSize=20;opacity=80;" vertex="1" parent="1">
                    <mxGeometry x="220" y="207" width="50" height="20" as="geometry"/>
                </mxCell>
            </root>
        </mxGraphModel>
    </diagram>
</mxfile>